<mxfile host="app.diagrams.net" agent="Mozilla/5.0 (Macintosh; Intel Mac OS X 10_15_7) AppleWebKit/537.36 (KHTML, like Gecko) Chrome/131.0.0.0 Safari/537.36" version="26.1.1">
  <diagram name="Sayfa -1" id="bWTLLq3QIxJGjeX0AN4n">
    <mxGraphModel dx="1026" dy="560" grid="1" gridSize="10" guides="1" tooltips="1" connect="1" arrows="1" fold="1" page="1" pageScale="1" pageWidth="827" pageHeight="1169" math="0" shadow="0">
      <root>
        <mxCell id="0" />
        <mxCell id="1" parent="0" />
        <mxCell id="5PvVeW9HgFGZtnE_NLCP-1" value="" style="strokeWidth=2;html=1;shape=mxgraph.flowchart.database;whiteSpace=wrap;" vertex="1" parent="1">
          <mxGeometry x="325" y="260" width="60" height="60" as="geometry" />
        </mxCell>
        <mxCell id="5PvVeW9HgFGZtnE_NLCP-2" value="" style="strokeWidth=2;html=1;shape=mxgraph.flowchart.database;whiteSpace=wrap;" vertex="1" parent="1">
          <mxGeometry x="130" y="260" width="60" height="60" as="geometry" />
        </mxCell>
        <mxCell id="5PvVeW9HgFGZtnE_NLCP-3" value="" style="rounded=0;whiteSpace=wrap;html=1;" vertex="1" parent="1">
          <mxGeometry x="470" y="160" width="180" height="60" as="geometry" />
        </mxCell>
        <mxCell id="5PvVeW9HgFGZtnE_NLCP-4" value="" style="rounded=0;whiteSpace=wrap;html=1;" vertex="1" parent="1">
          <mxGeometry x="280" y="160" width="150" height="60" as="geometry" />
        </mxCell>
        <mxCell id="5PvVeW9HgFGZtnE_NLCP-5" value="" style="rounded=0;whiteSpace=wrap;html=1;" vertex="1" parent="1">
          <mxGeometry x="60" y="160" width="190" height="60" as="geometry" />
        </mxCell>
        <mxCell id="5PvVeW9HgFGZtnE_NLCP-6" value="" style="strokeWidth=2;html=1;shape=mxgraph.flowchart.direct_data;whiteSpace=wrap;" vertex="1" parent="1">
          <mxGeometry x="260" y="20" width="120" height="60" as="geometry" />
        </mxCell>
        <mxCell id="5PvVeW9HgFGZtnE_NLCP-7" value="Db" style="text;strokeColor=none;fillColor=none;html=1;fontSize=24;fontStyle=1;verticalAlign=middle;align=center;" vertex="1" parent="1">
          <mxGeometry x="110" y="280" width="100" height="40" as="geometry" />
        </mxCell>
        <mxCell id="5PvVeW9HgFGZtnE_NLCP-8" value="Db" style="text;strokeColor=none;fillColor=none;html=1;fontSize=24;fontStyle=1;verticalAlign=middle;align=center;" vertex="1" parent="1">
          <mxGeometry x="305" y="280" width="100" height="40" as="geometry" />
        </mxCell>
        <mxCell id="5PvVeW9HgFGZtnE_NLCP-9" value="Kafka" style="text;strokeColor=none;fillColor=none;html=1;fontSize=24;fontStyle=1;verticalAlign=middle;align=center;" vertex="1" parent="1">
          <mxGeometry x="260" y="30" width="100" height="40" as="geometry" />
        </mxCell>
        <mxCell id="5PvVeW9HgFGZtnE_NLCP-10" value="Notification" style="text;strokeColor=none;fillColor=none;html=1;fontSize=24;fontStyle=1;verticalAlign=middle;align=center;" vertex="1" parent="1">
          <mxGeometry x="510" y="170" width="100" height="40" as="geometry" />
        </mxCell>
        <mxCell id="5PvVeW9HgFGZtnE_NLCP-11" value="Payment" style="text;strokeColor=none;fillColor=none;html=1;fontSize=24;fontStyle=1;verticalAlign=middle;align=center;" vertex="1" parent="1">
          <mxGeometry x="315" y="170" width="80" height="40" as="geometry" />
        </mxCell>
        <mxCell id="5PvVeW9HgFGZtnE_NLCP-12" value="Subscription" style="text;strokeColor=none;fillColor=none;html=1;fontSize=24;fontStyle=1;verticalAlign=middle;align=center;" vertex="1" parent="1">
          <mxGeometry x="110" y="170" width="100" height="40" as="geometry" />
        </mxCell>
        <mxCell id="5PvVeW9HgFGZtnE_NLCP-13" value="" style="line;strokeWidth=2;direction=south;html=1;" vertex="1" parent="1">
          <mxGeometry x="155" y="220" width="10" height="40" as="geometry" />
        </mxCell>
        <mxCell id="5PvVeW9HgFGZtnE_NLCP-15" value="" style="line;strokeWidth=2;direction=south;html=1;" vertex="1" parent="1">
          <mxGeometry x="350" y="220" width="10" height="40" as="geometry" />
        </mxCell>
        <mxCell id="5PvVeW9HgFGZtnE_NLCP-16" value="" style="endArrow=classic;startArrow=classic;html=1;rounded=0;exitX=0.91;exitY=1;exitDx=0;exitDy=0;exitPerimeter=0;entryX=0;entryY=0;entryDx=0;entryDy=0;" edge="1" parent="1" source="5PvVeW9HgFGZtnE_NLCP-6" target="5PvVeW9HgFGZtnE_NLCP-3">
          <mxGeometry width="50" height="50" relative="1" as="geometry">
            <mxPoint x="390" y="130" as="sourcePoint" />
            <mxPoint x="440" y="80" as="targetPoint" />
          </mxGeometry>
        </mxCell>
        <mxCell id="5PvVeW9HgFGZtnE_NLCP-17" value="" style="endArrow=classic;startArrow=classic;html=1;rounded=0;exitX=0.5;exitY=0;exitDx=0;exitDy=0;entryX=0.5;entryY=1;entryDx=0;entryDy=0;entryPerimeter=0;" edge="1" parent="1" source="5PvVeW9HgFGZtnE_NLCP-4" target="5PvVeW9HgFGZtnE_NLCP-6">
          <mxGeometry width="50" height="50" relative="1" as="geometry">
            <mxPoint x="260" y="130" as="sourcePoint" />
            <mxPoint x="310" y="80" as="targetPoint" />
          </mxGeometry>
        </mxCell>
        <mxCell id="5PvVeW9HgFGZtnE_NLCP-18" value="" style="endArrow=classic;startArrow=classic;html=1;rounded=0;exitX=0.85;exitY=-0.058;exitDx=0;exitDy=0;exitPerimeter=0;" edge="1" parent="1" source="5PvVeW9HgFGZtnE_NLCP-5">
          <mxGeometry width="50" height="50" relative="1" as="geometry">
            <mxPoint x="220" y="130" as="sourcePoint" />
            <mxPoint x="270" y="80" as="targetPoint" />
            <Array as="points" />
          </mxGeometry>
        </mxCell>
      </root>
    </mxGraphModel>
  </diagram>
</mxfile>
